<svg width="23" height="18" viewBox="0 0 23 18" fill="none" xmlns="http://www.w3.org/2000/svg">
<path d="M19.4248 0.573876C19.8223 0.201719 20.3512 -0.00402408 20.8999 5.96494e-05C21.4487 0.00414338 21.9744 0.217735 22.366 0.595765C22.7577 0.973794 22.9848 1.48669 22.9993 2.02623C23.0138 2.56578 22.8146 3.08976 22.4438 3.48762L11.1862 17.3348C10.9926 17.5399 10.759 17.7045 10.4993 17.8187C10.2396 17.9329 9.95908 17.9945 9.67462 17.9996C9.39016 18.0048 9.10756 17.9535 8.84372 17.8488C8.57988 17.7441 8.34021 17.5882 8.13905 17.3903L0.673503 10.0477C0.465599 9.85716 0.298846 9.62739 0.183189 9.37209C0.0675327 9.11679 0.00534242 8.8412 0.000329319 8.56175C-0.00468378 8.2823 0.0475831 8.00472 0.154011 7.74557C0.260439 7.48642 0.418848 7.251 0.619787 7.05337C0.820727 6.85574 1.06008 6.69994 1.32357 6.59527C1.58706 6.49059 1.86929 6.43918 2.15341 6.44411C2.43754 6.44904 2.71775 6.51021 2.97732 6.62396C3.23689 6.73772 3.47051 6.90172 3.66423 7.1062L9.57234 12.9143L19.3712 0.634927C19.3889 0.613562 19.4077 0.593179 19.4276 0.573876H19.4248Z" fill="#5FD25F"/>
</svg>
