<svg width="17" height="17" viewBox="0 0 17 17" fill="none" xmlns="http://www.w3.org/2000/svg">
<rect x="3" y="3" width="12" height="11" fill="#2B4F8C"/>
<path fill-rule="evenodd" clip-rule="evenodd" d="M8.5 0C3.80568 0 0 3.80568 0 8.5C0 13.1943 3.80568 17 8.5 17C13.1943 17 17 13.1943 17 8.5C17 3.80568 13.1943 0 8.5 0ZM5.95541 6.79459C5.80967 6.65383 5.61448 6.57595 5.41187 6.57771C5.20927 6.57947 5.01546 6.66073 4.87219 6.804C4.72892 6.94727 4.64765 7.14108 4.64589 7.34369C4.64413 7.5463 4.72201 7.74149 4.86277 7.88723L7.95368 10.9781C8.09859 11.123 8.2951 11.2044 8.5 11.2044C8.7049 11.2044 8.90141 11.123 9.04632 10.9781L12.1372 7.88723C12.278 7.74149 12.3559 7.5463 12.3541 7.34369C12.3524 7.14108 12.2711 6.94727 12.1278 6.804C11.9845 6.66073 11.7907 6.57947 11.5881 6.57771C11.3855 6.57595 11.1903 6.65383 11.0446 6.79459L8.5 9.33918L5.95541 6.79459Z" fill="#DCE9FF"/>
</svg>
