<svg width="13" height="13" viewBox="0 0 13 13" fill="none" xmlns="http://www.w3.org/2000/svg">
<path d="M6.5 0C2.9159 0 0 2.9159 0 6.5C0 10.0841 2.9159 13 6.5 13C10.0841 13 13 10.0841 13 6.5C13 2.9159 10.0841 0 6.5 0ZM7.15 10.4H5.85V9.1H7.15V10.4ZM7.7844 7.22475C7.657 7.32745 7.53415 7.4256 7.43665 7.5231C7.17145 7.78765 7.15065 8.02815 7.15 8.03855V8.125H5.85V8.01645C5.85 7.93975 5.86885 7.2514 6.5169 6.60335C6.64365 6.4766 6.80095 6.3479 6.96605 6.214C7.44315 5.82725 7.75645 5.54515 7.75645 5.15645C7.7489 4.82808 7.61313 4.51571 7.37819 4.28618C7.14325 4.05664 6.82781 3.92817 6.49936 3.92826C6.1709 3.92834 5.85553 4.05697 5.62071 4.28663C5.38589 4.51629 5.25028 4.82873 5.2429 5.1571H3.9429C3.9429 3.74725 5.09015 2.6 6.5 2.6C7.90985 2.6 9.0571 3.74725 9.0571 5.1571C9.0571 6.19515 8.29075 6.8146 7.7844 7.22475V7.22475Z" fill="#2B4F8C"/>
</svg>
