<svg width="12" height="12" viewBox="0 0 17 17" fill="none" xmlns="http://www.w3.org/2000/svg">
<path fill-rule="evenodd" clip-rule="evenodd" d="M-3.71547e-07 8.5C-1.66352e-07 13.1943 3.80568 17 8.5 17C13.1943 17 17 13.1943 17 8.5C17 3.80568 13.1943 -5.76742e-07 8.5 -3.71547e-07C3.80568 -1.66352e-07 -5.76742e-07 3.80568 -3.71547e-07 8.5ZM6.79459 11.0446C6.65383 11.1903 6.57595 11.3855 6.57771 11.5881C6.57947 11.7907 6.66073 11.9845 6.804 12.1278C6.94727 12.2711 7.14108 12.3524 7.34369 12.3541C7.5463 12.3559 7.74149 12.278 7.88723 12.1372L10.9781 9.04632C11.123 8.90141 11.2044 8.7049 11.2044 8.5C11.2044 8.2951 11.123 8.09859 10.9781 7.95368L7.88723 4.86277C7.74149 4.72201 7.5463 4.64413 7.34369 4.64589C7.14108 4.64765 6.94727 4.72892 6.804 4.87219C6.66073 5.01546 6.57947 5.20927 6.57771 5.41187C6.57595 5.61448 6.65383 5.80967 6.79459 5.95541L9.33918 8.5L6.79459 11.0446Z" fill="#2B4F8C"/>
</svg>
