<svg width="18" height="11" viewBox="0 0 18 11" fill="none" xmlns="http://www.w3.org/2000/svg">
<path d="M0.396208 0.420639C0.649976 0.151304 0.994114 0 1.35294 0C1.71177 0 2.05591 0.151304 2.30968 0.420639L9.00817 7.53218L15.7067 0.420639C15.9619 0.158937 16.3037 0.0141279 16.6585 0.0174012C17.0133 0.0206745 17.3527 0.171768 17.6036 0.438139C17.8545 0.70451 17.9969 1.06485 17.9999 1.44154C18.003 1.81823 17.8666 2.18114 17.6201 2.4521L9.9649 10.5794C9.71113 10.8487 9.367 11 9.00817 11C8.64934 11 8.3052 10.8487 8.05144 10.5794L0.396208 2.4521C0.142516 2.18268 0 1.81732 0 1.43637C0 1.05541 0.142516 0.690055 0.396208 0.420639Z" fill="#2B4F8C"/>
</svg>
